<?xml version="1.0" encoding="UTF-8" standalone="no"?>
<!-- Created with Inkscape (http://www.inkscape.org/) -->

<svg
   width="512"
   height="512"
   viewBox="0 0 512 512"
   version="1.1"
   id="svg5"
   inkscape:version="1.2.1 (9c6d41e410, 2022-07-14)"
   sodipodi:docname="aho.svg"
   inkscape:export-filename="aho.png"
   inkscape:export-xdpi="96"
   inkscape:export-ydpi="96"
   xmlns:inkscape="http://www.inkscape.org/namespaces/inkscape"
   xmlns:sodipodi="http://sodipodi.sourceforge.net/DTD/sodipodi-0.dtd"
   xmlns="http://www.w3.org/2000/svg"
   xmlns:svg="http://www.w3.org/2000/svg">
  <sodipodi:namedview
     id="namedview7"
     pagecolor="#ffffff"
     bordercolor="#000000"
     borderopacity="0.25"
     inkscape:showpageshadow="2"
     inkscape:pageopacity="0.0"
     inkscape:pagecheckerboard="0"
     inkscape:deskcolor="#d1d1d1"
     inkscape:document-units="px"
     showgrid="false"
     inkscape:zoom="0.82714844"
     inkscape:cx="33.246753"
     inkscape:cy="243.60803"
     inkscape:window-width="1412"
     inkscape:window-height="1026"
     inkscape:window-x="412"
     inkscape:window-y="1086"
     inkscape:window-maximized="0"
     inkscape:current-layer="layer1" />
  <defs
     id="defs2">
    <inkscape:path-effect
       effect="bspline"
       id="path-effect1838"
       is_visible="true"
       lpeversion="1"
       weight="33.333333"
       steps="2"
       helper_size="0"
       apply_no_weight="true"
       apply_with_weight="true"
       only_selected="false" />
    <inkscape:path-effect
       effect="bspline"
       id="path-effect1567"
       is_visible="true"
       lpeversion="1"
       weight="33.333333"
       steps="2"
       helper_size="0"
       apply_no_weight="true"
       apply_with_weight="true"
       only_selected="false" />
    <inkscape:path-effect
       effect="bspline"
       id="path-effect1563"
       is_visible="true"
       lpeversion="1"
       weight="33.333333"
       steps="2"
       helper_size="0"
       apply_no_weight="true"
       apply_with_weight="true"
       only_selected="false" />
    <inkscape:path-effect
       effect="bspline"
       id="path-effect1559"
       is_visible="true"
       lpeversion="1"
       weight="33.333333"
       steps="2"
       helper_size="0"
       apply_no_weight="true"
       apply_with_weight="true"
       only_selected="false" />
    <inkscape:path-effect
       effect="bspline"
       id="path-effect1555"
       is_visible="true"
       lpeversion="1"
       weight="33.333333"
       steps="2"
       helper_size="0"
       apply_no_weight="true"
       apply_with_weight="true"
       only_selected="false" />
    <inkscape:path-effect
       effect="bspline"
       id="path-effect1493"
       is_visible="true"
       lpeversion="1"
       weight="33.333333"
       steps="2"
       helper_size="0"
       apply_no_weight="true"
       apply_with_weight="true"
       only_selected="false" />
    <inkscape:path-effect
       effect="bspline"
       id="path-effect1485"
       is_visible="true"
       lpeversion="1"
       weight="33.333333"
       steps="2"
       helper_size="0"
       apply_no_weight="true"
       apply_with_weight="true"
       only_selected="false" />
    <inkscape:path-effect
       effect="bspline"
       id="path-effect1309"
       is_visible="true"
       lpeversion="1"
       weight="33.333333"
       steps="2"
       helper_size="0"
       apply_no_weight="true"
       apply_with_weight="true"
       only_selected="false" />
    <inkscape:path-effect
       effect="bspline"
       id="path-effect1286"
       is_visible="true"
       lpeversion="1"
       weight="33.333333"
       steps="2"
       helper_size="0"
       apply_no_weight="true"
       apply_with_weight="true"
       only_selected="false" />
    <linearGradient
       id="linearGradient1277"
       inkscape:swatch="solid">
      <stop
         style="stop-color:#ffff00;stop-opacity:1;"
         offset="0"
         id="stop1275" />
    </linearGradient>
    <inkscape:path-effect
       effect="bspline"
       id="path-effect329"
       is_visible="true"
       lpeversion="1"
       weight="33.333333"
       steps="2"
       helper_size="0"
       apply_no_weight="true"
       apply_with_weight="true"
       only_selected="false" />
    <clipPath
       clipPathUnits="userSpaceOnUse"
       id="clipPath2628">
      <g
         inkscape:label="Clip"
         id="use2630" />
    </clipPath>
    <clipPath
       clipPathUnits="userSpaceOnUse"
       id="clipPath2709">
      <g
         inkscape:label="Clip"
         id="use2711" />
    </clipPath>
    <clipPath
       clipPathUnits="userSpaceOnUse"
       id="clipPath2748">
      <g
         inkscape:label="Clip"
         id="use2750">
        <path
           style="display:inline;fill:#ff0000;stroke-width:0.604486"
           d="M 238.16765,506.00029 C 159.51154,499.10694 91.82128,459.26802 49.248168,394.81222 26.476767,360.33625 12.863258,321.33985 9.0872953,279.7699 c -0.835221,-9.19503 -0.835221,-33.34422 0,-42.53926 C 12.912075,195.12326 26.545792,156.3732 49.882414,121.28186 59.584057,106.69346 68.08525,96.354416 80.969951,83.473606 104.60965,59.841046 130.15147,42.613286 160.5852,29.773746 c 49.60572,-20.92791 105.01995,-24.9831 157.6769,-11.53871 17.6412,4.50415 32.41576,10.07959 49.87013,18.81936 25.54944,12.79314 46.97159,28.50669 66.92363,49.08974 39.64558,40.899444 63.87078,93.893834 69.06581,151.086504 0.83523,9.19504 0.83523,33.34423 0,42.53926 -8.95547,98.59162 -74.15669,181.61301 -167.72498,213.56594 -16.50603,5.6367 -34.89125,9.75022 -52.89256,11.83423 -9.72102,1.12541 -36.39479,1.61386 -45.33648,0.83022 z"
           id="path2756"
           inkscape:label="Circle" />
      </g>
    </clipPath>
    <clipPath
       clipPathUnits="userSpaceOnUse"
       id="clipPath2791">
      <g
         inkscape:label="Clip"
         id="use2793">
        <path
           style="fill:#ff0000;stroke-width:0.604486"
           d="M 256.90673,509.62721 C 178.25062,502.73386 110.56036,462.89494 67.987248,398.43914 45.215846,363.96317 31.602337,324.96677 27.826374,283.39682 c -0.835221,-9.19503 -0.835221,-33.34422 0,-42.53926 3.82478,-42.10738 17.458497,-80.85744 40.79512,-115.94879 9.701643,-14.5884 18.202836,-24.927436 31.087537,-37.808245 23.639699,-23.63256 49.181519,-40.86032 79.615249,-53.69986 49.60572,-20.92791 105.01995,-24.983101 157.6769,-11.53871 17.6412,4.50415 32.41576,10.07959 49.87013,18.81936 25.54944,12.79314 46.97159,28.50669 66.92363,49.08974 39.64558,40.899435 63.87078,93.893835 69.06581,151.086505 0.83523,9.19504 0.83523,33.34423 0,42.53926 -8.95547,98.59162 -74.15669,181.61301 -167.72498,213.56594 -16.50603,5.6367 -34.89125,9.75022 -52.89256,11.83423 -9.72102,1.12541 -36.39479,1.61386 -45.33648,0.83022 z"
           id="path2795"
           inkscape:label="Circle"
           mask="none" />
      </g>
    </clipPath>
    <clipPath
       clipPathUnits="userSpaceOnUse"
       id="clipPath2826">
      <path
         style="fill:#ff0000;stroke-width:0.604486"
         d="M 238.16765,504.79131 C 159.51154,497.89796 91.82128,458.05904 49.248168,393.60324 26.476767,359.12727 12.863258,320.13087 9.0872951,278.56092 c -0.8352212,-9.19503 -0.8352212,-33.34422 0,-42.53926 C 12.912075,193.91428 26.545792,155.16422 49.882414,120.07288 59.584057,105.48448 68.08525,95.145443 80.969951,82.264633 104.60965,58.632073 130.15147,41.404313 160.5852,28.564773 210.19092,7.6368631 265.60515,3.5816731 318.2621,17.026063 c 17.6412,4.50415 32.41576,10.07959 49.87013,18.81936 25.54944,12.79314 46.97159,28.50669 66.92363,49.08974 39.64558,40.899437 63.87078,93.893827 69.06581,151.086497 0.83523,9.19504 0.83523,33.34423 0,42.53926 -8.95547,98.59162 -74.15669,181.61301 -167.72498,213.56594 -16.50603,5.6367 -34.89125,9.75022 -52.89256,11.83423 -9.72102,1.12541 -36.39479,1.61386 -45.33648,0.83022 z"
         id="path2828"
         inkscape:label="Circle" />
    </clipPath>
  </defs>
  <g
     inkscape:label="Back"
     inkscape:groupmode="layer"
     id="layer1">
    <ellipse
       style="fill:#000000"
       id="path111"
       cx="255.39551"
       cy="256.30225"
       rx="248.74617"
       ry="248.44392"
       inkscape:label="back" />
    <path
       style="fill:#ff0000;stroke-width:15;stroke-dasharray:none;stroke:#000000;stroke-opacity:1"
       d="M 236.95868,503.80226 C 158.30257,496.90891 90.612309,457.06999 48.039197,392.61419 25.267796,358.13822 11.654287,319.14182 7.8783239,277.57187 c -0.8352212,-9.19503 -0.8352212,-33.34422 0,-42.53926 C 11.703104,192.92523 25.336821,154.17517 48.673443,119.08383 58.375086,104.49543 66.876279,94.156395 79.76098,81.275581 103.40068,57.643023 128.9425,40.415267 159.37623,27.575728 208.98195,6.6478121 264.39618,2.5926261 317.05313,16.03701 c 17.6412,4.504156 32.41576,10.079592 49.87013,18.819362 25.54944,12.793139 46.97159,28.506691 66.92363,49.089746 39.64558,40.899432 63.87078,93.893822 69.06581,151.086492 0.83523,9.19504 0.83523,33.34423 0,42.53926 -8.95547,98.59162 -74.15669,181.61301 -167.72498,213.56594 -16.50603,5.6367 -34.89125,9.75022 -52.89256,11.83423 -9.72102,1.12541 -36.39479,1.61386 -45.33648,0.83022 z"
       id="path264"
       inkscape:label="Circle" />
  </g>
  <g
     inkscape:groupmode="layer"
     id="g1489"
     inkscape:label="Hand"
     style="fill:#ffff00">
    <path
       style="fill:#ffff00;fill-opacity:1;stroke:#000000;stroke-width:20;stroke-dasharray:none;stroke-opacity:1"
       d="m 199.66517,380.55332 c -9.65402,-0.12994 -28.1916,1.28053 -47.1324,3.19474 -18.9408,1.91422 -38.28398,4.33212 -49.46688,5.33972 -11.182901,1.0076 -14.205273,0.60461 -17.429499,-3.1226 -3.224227,-3.72721 -6.649582,-10.77941 -9.36996,-19.04084 -2.720378,-8.26143 -4.735293,-17.73153 -6.951412,-23.77648 -2.216119,-6.04495 -4.634015,-8.66434 -7.656379,-10.37745 -3.022364,-1.71311 -6.649211,-2.51907 -10.780259,-1.9148 -4.131047,0.60428 -8.765353,2.61919 -11.888889,5.4405 -3.123535,2.8213 -4.735468,6.44815 -5.339814,11.38515 -0.604345,4.937 -0.201362,11.18324 1.511655,17.22823 1.713017,6.04499 4.735389,11.88824 6.881009,15.89486 2.14562,4.00662 3.414304,6.17642 4.119633,7.76 0.70533,1.58357 0.847805,2.5809 -0.648108,3.79132 -1.495913,1.21042 -4.630383,2.63518 -7.907632,4.91496 -3.277249,2.27977 -6.696677,5.41425 -9.047686,10.40149 -2.351008,4.98723 -3.633292,11.82608 -3.846873,19.44894 -0.21358,7.62285 0.641275,16.02893 2.707521,23.22422 2.066247,7.19529 5.343194,13.17928 10.900224,17.80953 5.55703,4.63025 13.393209,7.9072 21.300768,9.6167 7.907559,1.70951 15.886213,1.85198 23.865039,1.49572 7.978826,-0.35626 15.95748,-1.21111 22.439842,-4.4881 6.48237,-3.27699 11.46902,-8.97603 14.53226,-13.39266 3.06323,-4.41663 4.20304,-7.5511 4.9155,-11.18417 0.71247,-3.63306 0.99743,-7.76487 6.62593,-10.40125 5.6285,-2.63638 16.59915,-3.77618 28.9237,-4.98726 12.32456,-1.21108 26.00226,-2.49336 34.47968,-3.56201 8.47741,-1.06865 11.75436,-1.92351 13.46376,-9.7594 1.70939,-7.8359 1.85187,-22.6534 1.53798,-30.89674 -0.31389,-8.24334 -1.0847,-9.91238 -10.73871,-10.04232 z"
       id="path1487"
       inkscape:path-effect="#path-effect1493"
       inkscape:original-d="m 208.54781,379.01298 c -18.53658,1.41147 -37.07416,2.82194 -55.61275,4.23141 -19.34295,2.41899 -38.68613,4.83689 -58.030692,7.25384 -3.021493,-0.402 -6.043864,-0.80499 -9.067296,-1.20898 -3.424492,-7.05148 -6.849846,-14.10368 -10.27627,-21.15702 -2.013995,-9.46948 -4.028909,-18.93958 -6.044864,-28.41086 -2.416994,-2.6185 -4.834891,-5.23789 -7.253837,-7.85833 -3.625991,-0.80499 -7.252837,-1.61096 -10.880755,-2.41794 -4.633489,2.01599 -9.267792,4.03091 -13.903188,6.04486 -1.610996,3.62799 -3.222928,7.25484 -4.835892,10.88076 0.403999,6.24748 0.806982,12.49372 1.208973,18.73908 3.023493,5.84448 6.045865,11.68773 9.067297,17.5301 1.269734,2.17089 2.538418,4.34069 3.806127,6.50953 0.143482,0.99837 0.285958,1.9957 0.427436,2.99205 -3.133596,1.42582 -6.268067,2.85058 -9.403601,4.27437 -3.41856,3.13559 -6.837984,6.27007 -10.258475,9.4036 -1.281335,6.84012 -2.563619,13.67897 -3.846928,20.51695 0.85589,8.40742 1.710746,16.8135 2.564618,25.21875 3.278079,5.98523 6.555026,11.96922 9.831039,17.95233 7.837491,3.27808 15.67367,6.55503 23.509004,9.83104 7.979974,0.14348 15.958628,0.28596 23.936442,0.42743 7.979973,-0.85389 15.958627,-1.70874 23.936442,-2.56461 4.98786,-5.69827 9.97451,-11.39731 14.96027,-17.09746 1.14086,-3.1336 2.28066,-6.26807 3.41949,-9.4036 0.28597,-4.13097 0.57092,-8.26278 0.85488,-12.39566 10.97209,-1.13885 21.94274,-2.27866 32.9126,-3.41949 13.67924,-1.28134 27.35694,-2.56362 41.0339,-3.84693 3.27808,-0.85389 6.55503,-1.70875 9.83104,-2.56462 0.14348,-14.81709 0.28596,-29.63459 0.42744,-44.45339 -0.76983,-1.6681 -1.54063,-3.33714 -2.31245,-5.00721 z" />
  </g>
  <g
     inkscape:groupmode="layer"
     id="layer3"
     inkscape:label="Finger"
     style="fill:#ffff00">
    <path
       style="fill:#ffff00;fill-opacity:1;stroke:#000000;stroke-width:15.6;stroke-dasharray:none;stroke-opacity:1"
       d="m 31.515988,400.4965 c 4.936696,-2.1157 11.98904,-4.93664 20.754501,-5.54092 8.765461,-0.60428 19.243016,1.00765 22.264758,5.33992 3.021741,4.33227 -1.411072,11.38447 -8.463047,15.91792 -7.051976,4.53346 -16.723564,6.54838 -24.380281,7.25374 -7.656717,0.70537 -13.298478,0.10089 -16.422154,-3.12261 -3.123677,-3.2235 -3.728151,-9.06675 -2.619753,-12.69433 1.108398,-3.62758 3.929279,-5.03801 8.865976,-7.15372 z"
       id="path1553"
       inkscape:path-effect="#path-effect1555"
       inkscape:original-d="m 29.399825,401.20194 c 7.053341,-2.81994 14.105683,-5.64088 21.157025,-8.46281 10.478974,1.61299 20.956529,3.22492 31.433294,4.83589 -4.431989,7.05348 -8.864801,14.10568 -13.298702,21.15702 -9.670976,2.016 -19.342565,4.03091 -29.015348,6.04487 -5.640986,-0.6035 -11.282747,-1.20798 -16.92562,-1.81346 -0.603498,-5.84249 -1.207973,-11.68574 -1.813459,-17.53011 2.821993,-1.4095 5.642873,-2.81994 8.46281,-4.2314 z" />
    <path
       style="fill:#ffff00;fill-opacity:1;stroke:#000000;stroke-width:15.6;stroke-dasharray:none;stroke-opacity:1"
       d="m 23.691876,431.51179 c 1.914421,-3.02295 5.197366,-4.91568 12.984781,-7.27253 7.787414,-2.35685 20.078392,-5.17773 27.617389,-5.43262 7.538997,-0.2549 10.325261,2.05506 12.340156,3.96939 2.014895,1.91434 3.258418,3.43269 2.872146,6.20652 -0.386272,2.77384 -2.401187,6.80367 -6.128553,9.92657 -3.727365,3.1229 -9.167636,5.3393 -16.925087,6.64911 -7.757452,1.30981 -17.832024,1.71279 -24.17905,1.10867 -6.347026,-0.60412 -8.966414,-2.21605 -10.004038,-5.09807 -1.037625,-2.88203 -0.492165,-7.03409 1.422256,-10.05704 z"
       id="path1557"
       inkscape:path-effect="#path-effect1559"
       inkscape:original-d="m 22.323037,430.38175 c 3.283945,-1.89172 6.566889,-3.78445 9.848833,-5.67818 12.29247,-2.81999 24.583448,-5.64087 36.873672,-8.46281 2.787419,2.31108 5.57368,4.62104 8.359097,6.93012 1.244567,1.5194 2.488088,3.03775 3.730632,4.55512 -2.013995,4.03099 -4.02891,8.06082 -6.044865,12.08973 -5.439486,2.21749 -10.879755,4.4339 -16.321133,6.64935 -10.073975,0.404 -20.148547,0.80698 -30.224321,1.20897 -2.618494,-1.61099 -5.237882,-3.22292 -7.858324,-4.83589 0.54648,-4.15121 1.09194,-8.30327 1.636409,-12.45641 z"
       sodipodi:nodetypes="cccccccccc" />
    <path
       style="fill:#ffff00;fill-opacity:1;stroke:#000000;stroke-width:15.6;stroke-dasharray:none;stroke-opacity:1"
       d="m 50.83966,445.68639 c 7.354483,-1.21619 15.271665,-3.13752 20.641151,-3.38542 5.369486,-0.24791 8.190367,1.17685 10.251796,3.37128 2.061429,2.19444 3.363934,5.15773 2.859861,8.1797 -0.504074,3.02197 -2.814065,6.10336 -7.79717,8.65141 -4.983104,2.54805 -12.639781,4.56297 -18.785283,5.57053 -6.145503,1.00757 -10.779806,1.00757 -14.809781,1.10829 -4.029975,0.10073 -7.455329,0.30222 -10.074972,-1.51065 -2.619644,-1.81287 -4.433068,-5.64121 -4.836428,-9.26844 -0.403359,-3.62723 0.604097,-7.05258 4.504373,-9.0211 3.900277,-1.96853 10.69197,-2.47942 18.046453,-3.6956 z"
       id="path1561"
       inkscape:path-effect="#path-effect1563"
       inkscape:original-d="m 50.276086,446.39174 c 7.918341,-1.92037 15.835523,-3.8417 23.752021,-5.7641 2.821993,1.42581 5.642873,2.85057 8.46281,4.27436 1.303589,2.96448 2.606094,5.92777 3.907682,8.89025 -2.309087,3.08251 -4.619076,6.1639 -6.930114,9.24435 -7.655981,2.01599 -15.312656,4.03091 -22.970484,6.04486 -4.633489,0.001 -9.267792,0.001 -13.903188,0 -3.424492,0.2025 -6.849846,0.40399 -10.276269,0.60449 -1.812496,-3.82749 -3.625919,-7.65583 -5.440378,-11.48524 1.008497,-3.4245 2.015955,-6.84985 3.022432,-10.27627 6.792966,-0.50991 13.584659,-1.0208 20.375488,-1.5327 z"
       sodipodi:nodetypes="ccccccccccc" />
    <path
       style="fill:#ffff00;fill-opacity:1;stroke:#000000;stroke-width:16.1552042;stroke-dasharray:none;stroke-opacity:1"
       d="m 80.26563,465.74674 c 5.102858,0.87867 8.304364,3.77457 9.662157,6.85463 1.357792,3.08007 0.872763,6.34373 -2.828963,9.38184 -3.701726,3.0381 -10.620428,5.85125 -18.482049,7.58432 -7.861621,1.73306 -16.66609,2.38583 -21.76894,1.29849 -5.10285,-1.08733 -6.503561,-3.91598 -7.104211,-7.39762 -0.600651,-3.48164 -0.40055,-7.61581 3.301868,-10.44512 3.702418,-2.82931 10.906073,-4.35243 18.009929,-5.68392 7.103856,-1.33148 14.10735,-2.47128 19.210209,-1.59262 z"
       id="path1565"
       inkscape:path-effect="#path-effect1567"
       inkscape:original-d="m 82.16572,463.72837 c 3.202722,2.89709 6.404226,5.79299 9.605069,8.68819 -0.484087,3.26505 -0.969115,6.52871 -1.45519,9.79168 -6.918009,2.81428 -13.836712,5.62743 -20.756531,8.43963 -8.803829,0.65387 -17.608298,1.30663 -26.413938,1.95833 -1.399774,-2.82769 -2.800485,-5.65634 -4.202217,-8.48612 0.201102,-4.13327 0.401204,-8.26744 0.600316,-12.40278 7.204939,-1.52211 14.408596,-3.04522 21.611404,-4.56944 7.004829,-1.13885 14.008322,-2.27865 21.011087,-3.41949 z"
       sodipodi:nodetypes="ccccccccc" />
  </g>
  <g
     inkscape:groupmode="layer"
     id="g1305"
     inkscape:label="Body"
     style="fill:#ffff00">
    <path
       style="fill:#ffff00;fill-opacity:1;stroke:#000000;stroke-width:20;stroke-dasharray:none;stroke-opacity:1"
       d="m 198.87583,366.1177 c -5.84338,12.69424 -16.52263,36.06771 -23.77649,55.71381 -7.25386,19.64611 -11.0822,35.56393 -12.49252,48.45993 -1.41031,12.89599 -0.40286,22.76907 6e-5,31.23189 0.40293,8.46282 0.20144,15.51502 31.53512,18.83921 31.33368,3.32418 94.19901,2.9212 126.7404,2.41736 32.54138,-0.50383 34.75779,-1.10831 35.2612,-12.99615 0.50342,-11.88785 -0.70553,-35.05937 -3.3249,-55.00752 -2.61937,-19.94816 -6.6492,-36.67195 -13.80215,-52.79175 -7.15295,-16.1198 -17.42901,-31.63464 -24.07819,-40.29919 -6.64917,-8.66455 -9.67154,-10.47798 -27.10131,-11.38506 -17.42976,-0.90708 -49.26541,-0.90708 -65.6879,0.10062 -16.42249,1.00769 -17.42995,3.02261 -23.27332,15.71685 z"
       id="path1303"
       inkscape:label="Body"
       inkscape:original-d="m 203.71192,355.43801 c -10.67826,23.37448 -21.35752,46.74795 -32.03778,70.12043 -3.82749,15.91946 -7.65583,31.83728 -11.48524,47.75443 1.0085,9.87447 2.01596,19.74755 3.02243,29.61983 -0.2005,7.05348 -0.40199,14.10568 -0.60448,21.15703 62.86884,-0.402 125.73417,-0.80499 188.59976,-1.20898 2.21749,-0.6035 4.4339,-1.20797 6.64935,-1.81346 -1.208,-23.17144 -2.41694,-46.34296 -3.62692,-69.51593 -4.02899,-16.72346 -8.05882,-33.44725 -12.08973,-50.17238 -10.27547,-15.51446 -20.55153,-31.0293 -30.8288,-46.54545 -3.0215,-1.8125 -6.04387,-3.62592 -9.0673,-5.44038 -31.83592,0.001 -63.67157,0.001 -95.50885,0 -1.0065,2.01599 -2.01396,4.03091 -3.02244,6.04486 z"
       inkscape:path-effect="#path-effect1309"
       clip-path="url(#clipPath2826)" />
  </g>
  <g
     inkscape:groupmode="layer"
     id="layer2"
     inkscape:label="Head"
     style="fill:#ffff00"
     transform="translate(-4.8358913,-34.455726)">
    <path
       style="fill:#ffff00;fill-opacity:1;stroke:#000000;stroke-width:20;stroke-dasharray:none;stroke-opacity:1"
       d="m 162.6069,214.79522 c -1.20896,-19.54505 -3.02242,-45.53796 1.51122,-67.60228 4.53363,-22.06433 15.41417,-40.19855 27.90735,-52.389339 12.49318,-12.190789 26.59759,-18.437024 43.52364,-22.164627 16.92605,-3.727603 36.67221,-4.936551 54.50483,-0.603909 17.83263,4.332643 33.75046,14.205726 48.86266,26.59799 15.11221,12.392265 29.41811,27.302635 41.1047,45.437535 11.68659,18.1349 20.75371,39.49299 26.69767,60.14643 5.94397,20.65345 8.76485,40.6011 9.77223,67.70251 1.00738,27.10142 0.20142,61.35496 -5.84355,84.02282 -6.04496,22.66786 -17.32825,33.74966 -31.13069,42.21254 -13.80243,8.46288 -30.12324,14.30614 -45.23544,18.63834 -15.1122,4.33221 -29.01511,7.15309 -52.58995,8.05991 -23.57483,0.90682 -56.82093,-0.10063 -85.33302,-4.2312 -28.5121,-4.13057 -52.28809,-11.38427 -71.1281,-20.24994 -18.84,-8.86567 -32.742907,-19.34322 -41.810676,-34.05242 -9.067768,-14.70919 -13.299087,-33.64939 -7.858696,-50.87798 5.440391,-17.2286 20.55225,-32.74344 37.075502,-41.60932 16.52324,-8.86588 34.45597,-11.08229 43.11987,-18.73867 8.66389,-7.65639 8.05941,-20.75334 6.85045,-40.29839 z"
       id="path327"
       inkscape:path-effect="#path-effect329"
       inkscape:original-d="m 163.21133,221.24203 c -1.81246,-25.99192 -3.62592,-51.98483 -5.44038,-77.97875 10.88198,-18.13396 21.76252,-36.26818 32.64227,-54.403776 14.10597,-6.245484 28.21037,-12.491719 42.31405,-18.739079 19.74795,-1.207997 39.49411,-2.416945 59.23967,-3.626918 15.91946,9.874476 31.83729,19.747556 47.75443,29.619835 14.30746,14.911958 28.61336,29.822328 42.91853,44.731988 9.06848,21.35995 18.1356,42.71804 27.20189,64.07556 2.822,19.94946 5.64288,39.89711 8.46281,59.84416 -0.80499,34.25592 -1.61096,68.50946 -2.41794,102.76269 -11.28298,11.08348 -22.56627,22.16528 -33.85125,33.24675 -16.32045,5.84449 -32.64126,11.68774 -48.96339,17.53011 -13.90247,2.82199 -27.80538,5.64287 -41.70956,8.46281 -33.24575,-1.00648 -66.49185,-2.01393 -99.74027,-3.02243 -23.77593,-7.25298 -47.55193,-14.50667 -71.32939,-21.76151 -13.90247,-10.47698 -27.805378,-20.95453 -41.709565,-31.4333 -4.23049,-18.93995 -8.46181,-37.88014 -12.694215,-56.82172 15.113462,-15.51446 30.225321,-31.0293 45.33648,-46.54545 17.93446,-2.2155 35.86719,-4.4319 53.79929,-6.64935 -0.6035,-13.09647 -1.20797,-26.19342 -1.81346,-39.29162 z"
       sodipodi:nodetypes="cccccccccccccccccccc"
       inkscape:label="path327" />
  </g>
  <g
     inkscape:groupmode="layer"
     id="layer4"
     inkscape:label="Face 1">
    <ellipse
       style="fill:#ffffff;fill-opacity:1;stroke:#000000;stroke-width:21.19479942;stroke-dasharray:none;stroke-opacity:1"
       id="path1602"
       cx="208.24557"
       cy="206.4321"
       rx="34.45927"
       ry="58.034241" />
    <ellipse
       style="fill:#ffffff;fill-opacity:1;stroke:#000000;stroke-width:20.94479942;stroke-dasharray:none;stroke-opacity:1"
       id="path1602-9"
       cx="300.1275"
       cy="209.15231"
       rx="33.615032"
       ry="58.096733" />
    <path
       style="fill:#ffffff;fill-opacity:1;stroke:#000000;stroke-width:20;stroke-dasharray:none;stroke-opacity:1"
       d="m 138.42739,318.56435 c 65.89002,0 131.77904,0 166.63748,-1.00759 34.85844,-1.0076 38.68677,-3.02251 42.51482,-5.03727"
       id="path1836"
       inkscape:path-effect="#path-effect1838"
       inkscape:original-d="m 138.42739,318.56435 c 65.89002,0.001 131.77904,0.001 197.66706,0 3.82949,-2.01399 7.65782,-4.0289 11.48524,-6.04486" />
  </g>
</svg>
